<?xml version="1.0" standalone="no"?>
<!DOCTYPE svg PUBLIC "-//W3C//DTD SVG 20010904//EN"
 "http://www.w3.org/TR/2001/REC-SVG-20010904/DTD/svg10.dtd">
<svg version="1.0" xmlns="http://www.w3.org/2000/svg"
 width="512.000000pt" height="512.000000pt" viewBox="0 0 512.000000 512.000000"
 preserveAspectRatio="xMidYMid meet">

<g transform="translate(0.000000,512.000000) scale(0.100000,-0.100000)"
fill="#000000" stroke="none">
<path d="M504 4801 c-111 -51 -157 -200 -98 -320 16 -32 40 -61 63 -76 20 -13
114 -51 210 -84 96 -34 176 -62 177 -64 1 -1 89 -452 194 -1002 106 -550 205
-1049 220 -1110 69 -265 190 -507 333 -662 118 -128 298 -225 468 -252 41 -7
378 -11 927 -11 756 0 867 2 900 15 85 36 126 106 127 215 0 64 -4 82 -27 122
-15 25 -45 57 -65 70 l-38 23 -875 5 c-784 5 -880 8 -923 23 -120 42 -205 111
-271 221 -20 33 -36 63 -36 68 0 4 494 9 1098 10 l1097 3 57 28 c68 33 127 97
168 181 38 78 530 1754 530 1804 -1 109 -42 180 -129 221 l-56 26 -1619 5
-1619 5 -48 144 c-52 154 -74 196 -123 229 -34 23 -538 182 -577 182 -13 0
-42 -9 -65 -19z m1889 -1215 c73 -30 125 -127 112 -207 -18 -108 -138 -183
-240 -149 -47 16 -104 66 -121 107 -65 154 95 314 249 249z m1085 -7 c75 -37
115 -124 98 -214 -9 -45 -59 -103 -111 -126 -133 -61 -281 53 -261 199 17 128
154 199 274 141z m-375 -523 c156 -46 333 -151 443 -261 75 -75 81 -140 17
-207 -53 -55 -131 -49 -202 17 -74 69 -188 142 -270 174 -251 96 -494 43 -732
-160 -66 -57 -101 -72 -143 -63 -70 15 -106 62 -106 139 0 43 4 51 56 101 102
100 271 205 399 249 108 36 168 44 310 41 116 -3 155 -8 228 -30z"/>
</g>
</svg>
